<svg viewBox="0 0 1240 600" xmlns="http://www.w3.org/2000/svg" font-family="Inter, 'Segoe UI', system-ui, sans-serif">
<rect x="0" y="0" width="1240" height="600" fill="#FBFAF8"/>
<text x="620.0" y="46.0" font-family="Inter, 'Segoe UI', system-ui, sans-serif" font-size="20" font-weight="600" fill="#222A33" text-anchor="middle">A language model reads a sequence of token-vectors and emits the next token</text>
<circle cx="136.0" cy="250" r="2.3" fill="#8B919A"/>
<circle cx="146.0" cy="250" r="2.3" fill="#8B919A"/>
<circle cx="156.0" cy="250" r="2.3" fill="#8B919A"/>
<g opacity="1.0"><rect x="170.0" y="190.0" width="26.0" height="24.0" fill="#a8b8c8"/><rect x="170.0" y="214.0" width="26.0" height="24.0" fill="#7393b8"/><rect x="170.0" y="238.0" width="26.0" height="24.0" fill="#deb8aa"/><rect x="170.0" y="262.0" width="26.0" height="24.0" fill="#507bad"/><rect x="170.0" y="286.0" width="26.0" height="24.0" fill="#e9d8cc"/><rect x="170.0" y="190.0" width="26.0" height="120.0" rx="5" fill="none" stroke="#3A434D" stroke-width="1.4"/></g>
<g opacity="1.0"><rect x="228.0" y="190.0" width="26.0" height="24.0" fill="#b9c4ce"/><rect x="228.0" y="214.0" width="26.0" height="24.0" fill="#507bad"/><rect x="228.0" y="238.0" width="26.0" height="24.0" fill="#eee8de"/><rect x="228.0" y="262.0" width="26.0" height="24.0" fill="#507bad"/><rect x="228.0" y="286.0" width="26.0" height="24.0" fill="#dcdcd9"/><rect x="228.0" y="190.0" width="26.0" height="120.0" rx="5" fill="none" stroke="#3A434D" stroke-width="1.4"/></g>
<g opacity="1.0"><rect x="286.0" y="190.0" width="26.0" height="24.0" fill="#507bad"/><rect x="286.0" y="214.0" width="26.0" height="24.0" fill="#6187b3"/><rect x="286.0" y="238.0" width="26.0" height="24.0" fill="#cbd0d3"/><rect x="286.0" y="262.0" width="26.0" height="24.0" fill="#c87764"/><rect x="286.0" y="286.0" width="26.0" height="24.0" fill="#6187b3"/><rect x="286.0" y="190.0" width="26.0" height="120.0" rx="5" fill="none" stroke="#3A434D" stroke-width="1.4"/></g>
<g opacity="1.0"><rect x="344.0" y="190.0" width="26.0" height="24.0" fill="#849fbe"/><rect x="344.0" y="214.0" width="26.0" height="24.0" fill="#deb8aa"/><rect x="344.0" y="238.0" width="26.0" height="24.0" fill="#bd5740"/><rect x="344.0" y="262.0" width="26.0" height="24.0" fill="#e3c8bb"/><rect x="344.0" y="286.0" width="26.0" height="24.0" fill="#cbd0d3"/><rect x="344.0" y="190.0" width="26.0" height="120.0" rx="5" fill="none" stroke="#3A434D" stroke-width="1.4"/></g>
<g opacity="1.0"><rect x="402.0" y="190.0" width="26.0" height="24.0" fill="#b8472f"/><rect x="402.0" y="214.0" width="26.0" height="24.0" fill="#507bad"/><rect x="402.0" y="238.0" width="26.0" height="24.0" fill="#c87764"/><rect x="402.0" y="262.0" width="26.0" height="24.0" fill="#a8b8c8"/><rect x="402.0" y="286.0" width="26.0" height="24.0" fill="#7393b8"/><rect x="402.0" y="190.0" width="26.0" height="120.0" rx="5" fill="none" stroke="#3A434D" stroke-width="1.4"/></g>
<g opacity="1.0"><rect x="460.0" y="190.0" width="26.0" height="24.0" fill="#6187b3"/><rect x="460.0" y="214.0" width="26.0" height="24.0" fill="#a8b8c8"/><rect x="460.0" y="238.0" width="26.0" height="24.0" fill="#ce8775"/><rect x="460.0" y="262.0" width="26.0" height="24.0" fill="#849fbe"/><rect x="460.0" y="286.0" width="26.0" height="24.0" fill="#e3c8bb"/><rect x="460.0" y="190.0" width="26.0" height="120.0" rx="5" fill="none" stroke="#3A434D" stroke-width="1.4"/></g>
<text x="328.0" y="344.0" font-family="Inter, 'Segoe UI', system-ui, sans-serif" font-size="14" font-weight="400" fill="#8B919A" text-anchor="middle">input sequence  (the context so far)</text>
<line x1="498.0" y1="250.0" x2="532.0" y2="250.0" stroke="#222A33" stroke-width="7" stroke-linecap="round"/><path d="M548.0,250.0 L532.0,259.9 L532.0,240.1 Z" fill="#222A33"/>
<rect x="560" y="145.0" width="250" height="210" rx="16" fill="#EDF1F5" stroke="#2B3340" stroke-width="2.4"/>
<line x1="576" y1="180.0" x2="794" y2="180.0" stroke="#C9D2DC" stroke-width="1.4"/>
<line x1="576" y1="215.0" x2="794" y2="215.0" stroke="#C9D2DC" stroke-width="1.4"/>
<line x1="576" y1="250.0" x2="794" y2="250.0" stroke="#C9D2DC" stroke-width="1.4"/>
<line x1="576" y1="285.0" x2="794" y2="285.0" stroke="#C9D2DC" stroke-width="1.4"/>
<line x1="576" y1="320.0" x2="794" y2="320.0" stroke="#C9D2DC" stroke-width="1.4"/>
<text x="685.0" y="244.0" font-family="Inter, 'Segoe UI', system-ui, sans-serif" font-size="34" font-weight="700" fill="#2B3340" text-anchor="middle">LLM</text>
<text x="685.0" y="270.0" font-family="Inter, 'Segoe UI', system-ui, sans-serif" font-size="12.5" font-weight="400" fill="#8B919A" text-anchor="middle">stacked transformer layers</text>
<text x="685.0" y="288.0" font-family="Inter, 'Segoe UI', system-ui, sans-serif" font-size="12.5" font-weight="400" fill="#8B919A" text-anchor="middle">next-token model</text>
<line x1="822.0" y1="250.0" x2="820.0" y2="250.0" stroke="#C98A2C" stroke-width="7" stroke-linecap="round"/><path d="M836.0,250.0 L820.0,259.9 L820.0,240.1 Z" fill="#C98A2C"/>
<g opacity="1.0"><rect x="838.0" y="190.0" width="26.0" height="24.0" fill="#deb8aa"/><rect x="838.0" y="214.0" width="26.0" height="24.0" fill="#b9c4ce"/><rect x="838.0" y="238.0" width="26.0" height="24.0" fill="#e9d8cc"/><rect x="838.0" y="262.0" width="26.0" height="24.0" fill="#507bad"/><rect x="838.0" y="286.0" width="26.0" height="24.0" fill="#507bad"/><rect x="838.0" y="190.0" width="26.0" height="120.0" rx="5" fill="none" stroke="#C98A2C" stroke-width="3.0"/></g>
<g opacity="0.45"><rect x="898.0" y="190.0" width="26.0" height="24.0" fill="#849fbe"/><rect x="898.0" y="214.0" width="26.0" height="24.0" fill="#d8a898"/><rect x="898.0" y="238.0" width="26.0" height="24.0" fill="#dcdcd9"/><rect x="898.0" y="262.0" width="26.0" height="24.0" fill="#a8b8c8"/><rect x="898.0" y="286.0" width="26.0" height="24.0" fill="#e3c8bb"/><rect x="898.0" y="190.0" width="26.0" height="120.0" rx="5" fill="none" stroke="#3A434D" stroke-width="1.4"/></g>
<g opacity="0.45"><rect x="958.0" y="190.0" width="26.0" height="24.0" fill="#dcdcd9"/><rect x="958.0" y="214.0" width="26.0" height="24.0" fill="#a8b8c8"/><rect x="958.0" y="238.0" width="26.0" height="24.0" fill="#ce8775"/><rect x="958.0" y="262.0" width="26.0" height="24.0" fill="#d8a898"/><rect x="958.0" y="286.0" width="26.0" height="24.0" fill="#96acc3"/><rect x="958.0" y="190.0" width="26.0" height="120.0" rx="5" fill="none" stroke="#3A434D" stroke-width="1.4"/></g>
<g opacity="0.45"><rect x="1018.0" y="190.0" width="26.0" height="24.0" fill="#e9d8cc"/><rect x="1018.0" y="214.0" width="26.0" height="24.0" fill="#e9d8cc"/><rect x="1018.0" y="238.0" width="26.0" height="24.0" fill="#c36752"/><rect x="1018.0" y="262.0" width="26.0" height="24.0" fill="#d39886"/><rect x="1018.0" y="286.0" width="26.0" height="24.0" fill="#a8b8c8"/><rect x="1018.0" y="190.0" width="26.0" height="120.0" rx="5" fill="none" stroke="#3A434D" stroke-width="1.4"/></g>
<text x="851.0" y="174.0" font-family="Inter, 'Segoe UI', system-ui, sans-serif" font-size="13" font-weight="600" fill="#C98A2C" text-anchor="middle">emitted now</text>
<line x1="851.0" y1="180.0" x2="851.0" y2="181.0" stroke="#C98A2C" stroke-width="3" stroke-linecap="round"/><path d="M851.0,189.0 L846.0,181.0 L856.0,181.0 Z" fill="#C98A2C"/>
<text x="941.0" y="344.0" font-family="Inter, 'Segoe UI', system-ui, sans-serif" font-size="14" font-weight="400" fill="#8B919A" text-anchor="middle">output tokens  (one at a time)</text>
<path d="M851.0,162.0 L851.0,133.0 Q851.0,121.0 839.0,121.0 L535.0,121.0 Q523.0,121.0 523.0,133.0 L523.0,184.0" fill="none" stroke="#8B919A" stroke-width="2" stroke-dasharray="8 7"/>
<line x1="523.0" y1="139.0" x2="523.0" y2="174.0" stroke="#8B919A" stroke-width="2" stroke-linecap="round"/><path d="M523.0,184.0 L516.8,174.0 L529.2,174.0 Z" fill="#8B919A"/>
<text x="687.0" y="113.0" font-family="Inter, 'Segoe UI', system-ui, sans-serif" font-size="12.5" font-weight="400" fill="#8B919A" text-anchor="middle" font-style="italic">each emitted token is appended, then the whole sequence is read again</text>
<g opacity="1.0"><rect x="150.0" y="410.0" width="46.0" height="30.0" fill="#b8472f"/><text x="173.0" y="428.0" font-family="'SF Mono', 'Consolas', 'Roboto Mono', monospace" font-size="10" fill="#222A33" text-anchor="middle">+1.0</text><rect x="150.0" y="440.0" width="46.0" height="30.0" fill="#6187b3"/><text x="173.0" y="458.0" font-family="'SF Mono', 'Consolas', 'Roboto Mono', monospace" font-size="10" fill="#222A33" text-anchor="middle">-0.8</text><rect x="150.0" y="470.0" width="46.0" height="30.0" fill="#cbd0d3"/><text x="173.0" y="488.0" font-family="'SF Mono', 'Consolas', 'Roboto Mono', monospace" font-size="10" fill="#222A33" text-anchor="middle">-0.2</text><rect x="150.0" y="500.0" width="46.0" height="30.0" fill="#d39886"/><text x="173.0" y="518.0" font-family="'SF Mono', 'Consolas', 'Roboto Mono', monospace" font-size="10" fill="#222A33" text-anchor="middle">+0.5</text><rect x="150.0" y="530.0" width="46.0" height="30.0" fill="#7393b8"/><text x="173.0" y="548.0" font-family="'SF Mono', 'Consolas', 'Roboto Mono', monospace" font-size="10" fill="#222A33" text-anchor="middle">-0.7</text><rect x="150.0" y="410.0" width="46.0" height="150.0" rx="5" fill="none" stroke="#3A434D" stroke-width="1.4"/></g>
<path d="M210,410 q8,0 8,8 l0,61 q0,8 8,8 q-8,0 -8,8 l0,61 q0,8 -8,8" fill="none" stroke="#222A33" stroke-width="1.6"/>
<text x="236.0" y="477.0" font-family="Inter, 'Segoe UI', system-ui, sans-serif" font-size="15" font-weight="600" fill="#222A33" text-anchor="start">one token</text>
<text x="236.0" y="498.0" font-family="Inter, 'Segoe UI', system-ui, sans-serif" font-size="15" font-weight="400" fill="#222A33" text-anchor="start">= a vector of numbers</text>
<text x="236.0" y="518.0" font-family="Inter, 'Segoe UI', system-ui, sans-serif" font-size="13" font-weight="400" fill="#8B919A" text-anchor="start">(its embedding)</text>
<path d="M183.0,316.0 C183.0,350.0 173.0,320.0 173.0,404.0" fill="none" stroke="#8B919A" stroke-width="1.3" stroke-dasharray="3 4"/>
</svg>